<svg width="30" height="30" viewBox="0 0 30 30" fill="none" xmlns="http://www.w3.org/2000/svg">
<path fill-rule="evenodd" clip-rule="evenodd" d="M15 5C13.0635 5 11.3499 6.25386 10.764 8.09957L9.76383 11.25H10.625H19.375H20.2362L19.236 8.09957C18.65 6.25386 16.9364 5 15 5ZM22.859 11.25L21.6188 7.34312C20.7033 4.45917 18.0258 2.5 15 2.5C11.9742 2.5 9.29669 4.45917 8.38115 7.34312L7.14088 11.25H4.18489C2.50734 11.25 1.30583 12.8695 1.79233 14.475L3.19763 19.1125L4.93248 24.8375C5.41163 26.4187 6.86914 27.5 8.52133 27.5H12.5H17.5H21.4787C23.1308 27.5 24.5883 26.4187 25.0674 24.8375L26.8023 19.1125L28.2076 14.475C28.6941 12.8695 27.4927 11.25 25.815 11.25H22.859ZM8.05553 13.75H4.18489L5.32125 17.5H10.0452L9.53385 13.75H8.05553ZM12.057 13.75L12.5684 17.5H17.4315L17.9429 13.75H12.057ZM20.466 13.75L19.9548 17.5H24.6787L25.815 13.75H21.9444H20.466ZM23.9212 20H19.6138L18.932 25H21.4787C22.0294 25 22.5152 24.6396 22.6749 24.1125L23.9212 20ZM16.4089 25L17.0907 20H12.9093L13.591 25H16.4089ZM11.068 25L10.3861 20H6.07883L7.32504 24.1125C7.48475 24.6396 7.9706 25 8.52133 25H11.068Z" fill="#E5E5E5"/>
</svg>
