<svg width="30" height="30" viewBox="0 0 30 30" fill="none" xmlns="http://www.w3.org/2000/svg">
<path d="M16.5891 7.15863C16.5891 7.46566 16.5891 8.46638 16.5891 9.8881H21.4772L20.9473 14.2455H16.5891C16.5891 20.9655 16.5891 29.9706 16.5891 29.9706H10.8044C10.8044 29.9706 10.8044 21.0847 10.8044 14.2455H7.79016V9.8881H10.8044C10.8044 8.16005 10.8044 6.93128 10.8044 6.58915C10.8044 4.95907 10.6816 4.18564 11.3742 2.92247C12.0672 1.65937 14.0219 -0.0102015 17.4027 0.0299938C20.7843 0.071654 22.2097 0.396966 22.2097 0.396966L21.4772 5.04093C21.4772 5.04093 19.3179 4.47075 18.258 4.67396C17.1995 4.87722 16.5891 5.52925 16.5891 7.15863Z" fill="#E5E5E5"/>
</svg>
