<svg width="40" height="40" viewBox="0 0 40 40" fill="none" xmlns="http://www.w3.org/2000/svg">
<path d="M25.5562 6.25H14.4425C12.2702 6.25166 10.1874 7.11532 8.65136 8.65136C7.11532 10.1874 6.25166 12.2702 6.25 14.4425V25.5562C6.25132 27.7287 7.11485 29.8119 8.65091 31.3482C10.187 32.8845 12.27 33.7483 14.4425 33.75H25.5562C27.7286 33.748 29.8115 32.8841 31.3475 31.3478C32.8835 29.8116 33.7471 27.7286 33.7488 25.5562V14.4425C33.7478 12.27 32.8843 10.1868 31.3481 8.65063C29.8119 7.11445 27.7287 6.25099 25.5562 6.25ZM30.9838 25.5562C30.9834 26.9956 30.4115 28.3759 29.3937 29.3937C28.3759 30.4115 26.9956 30.9834 25.5562 30.9838H14.4425C13.7298 30.9838 13.0241 30.8434 12.3657 30.5706C11.7073 30.2978 11.109 29.898 10.6051 29.394C10.1012 28.89 9.70156 28.2917 9.42894 27.6332C9.15632 26.9747 9.01609 26.2689 9.01625 25.5562V14.4425C9.01609 13.7299 9.15633 13.0242 9.42896 12.3658C9.7016 11.7074 10.1013 11.1091 10.6052 10.6052C11.1091 10.1013 11.7074 9.7016 12.3658 9.42896C13.0242 9.15633 13.7299 9.01609 14.4425 9.01625H25.5562C26.9953 9.01658 28.3753 9.58838 29.3928 10.6059C30.4104 11.6235 30.9822 13.0035 30.9825 14.4425L30.9838 25.5562Z" fill="#E5E5E5"/>
<path d="M20 12.89C16.0775 12.89 12.89 16.0788 12.89 20C12.89 23.9213 16.0788 27.11 20 27.11C23.9213 27.11 27.11 23.9213 27.11 20C27.11 16.0788 23.9225 12.89 20 12.89ZM20 24.3438C18.848 24.3439 17.7431 23.8864 16.9283 23.0719C16.1136 22.2574 15.6558 21.1527 15.6556 20.0006C15.6555 18.8486 16.113 17.7437 16.9275 16.929C17.7419 16.1142 18.8467 15.6564 19.9988 15.6563C21.1508 15.6561 22.2557 16.1136 23.0704 16.9281C23.8852 17.7426 24.343 18.8473 24.3431 19.9994C24.3433 21.1514 23.8858 22.2563 23.0713 23.0711C22.2568 23.8858 21.152 24.3436 20 24.3438ZM27.125 11.2388C27.4619 11.239 27.7911 11.3391 28.0711 11.5264C28.3511 11.7137 28.5693 11.9798 28.6981 12.2911C28.8269 12.6024 28.8605 12.9448 28.7947 13.2752C28.7289 13.6056 28.5667 13.909 28.3285 14.1472C28.0903 14.3854 27.7868 14.5477 27.4565 14.6135C27.1261 14.6792 26.7836 14.6456 26.4723 14.5168C26.1611 14.388 25.895 14.1698 25.7077 13.8898C25.5204 13.6098 25.4203 13.2806 25.42 12.9438C25.42 12.0038 26.0575 11.2388 27.125 11.2388Z" fill="#E5E5E5"/>
</svg>
