<svg width="170" height="41" viewBox="0 0 170 41" fill="none" xmlns="http://www.w3.org/2000/svg">
<path fill-rule="evenodd" clip-rule="evenodd" d="M20.6841 40.138C31.7298 40.138 40.6841 31.1837 40.6841 20.138C40.6841 9.09237 31.7298 0.138062 20.6841 0.138062C9.63837 0.138062 0.684082 9.09237 0.684082 20.138C0.684082 31.1837 9.63837 40.138 20.6841 40.138ZM26.9234 9.4549C27.2271 8.37611 26.1802 7.73819 25.2241 8.41936L11.8772 17.9276C10.8403 18.6663 11.0034 20.138 12.1222 20.138H15.6368V20.1108H22.4866L16.9053 22.0801L14.4448 30.8212C14.1411 31.9 15.1879 32.5379 16.1441 31.8567L29.491 22.3485C30.5279 21.6098 30.3647 20.138 29.246 20.138H23.9162L26.9234 9.4549Z" fill="#E5E5E5"/>
<path d="M54.24 27.16C53.2133 27.16 52.3467 27.0933 51.64 26.96C50.9333 26.8267 50.3467 26.6067 49.88 26.3C49.4133 25.98 49.0467 25.5533 48.78 25.02C48.5267 24.4733 48.3467 23.8 48.24 23C48.1467 22.2 48.1 21.24 48.1 20.12C48.1 19 48.1467 18.04 48.24 17.24C48.3467 16.44 48.5333 15.7733 48.8 15.24C49.0667 14.6933 49.4333 14.2667 49.9 13.96C50.3667 13.64 50.9533 13.4133 51.66 13.28C52.3667 13.1467 53.2267 13.08 54.24 13.08C54.6933 13.08 55.2 13.1 55.76 13.14C56.32 13.18 56.8733 13.2333 57.42 13.3C57.98 13.3667 58.5 13.4467 58.98 13.54V16.04C58.5267 15.9733 58.0733 15.9267 57.62 15.9C57.18 15.86 56.7733 15.8267 56.4 15.8C56.0267 15.7733 55.72 15.76 55.48 15.76C54.76 15.76 54.1667 15.7733 53.7 15.8C53.2333 15.8267 52.8533 15.9133 52.56 16.06C52.2667 16.1933 52.0467 16.4133 51.9 16.72C51.7533 17.0267 51.6533 17.46 51.6 18.02C51.56 18.5667 51.54 19.2667 51.54 20.12C51.54 20.88 51.5533 21.52 51.58 22.04C51.62 22.56 51.6933 22.9867 51.8 23.32C51.92 23.6533 52.08 23.9133 52.28 24.1C52.4933 24.2733 52.7667 24.3933 53.1 24.46C53.4467 24.5267 53.8667 24.56 54.36 24.56C54.52 24.56 54.6933 24.56 54.88 24.56C55.0667 24.5467 55.2467 24.5333 55.42 24.52C55.5933 24.5067 55.74 24.5 55.86 24.5V21.52H53.9V19.02H59.04V26.72C58.56 26.8133 58.0333 26.8933 57.46 26.96C56.8867 27.0133 56.32 27.06 55.76 27.1C55.2 27.14 54.6933 27.16 54.24 27.16ZM67.2398 27.16C66.2132 27.16 65.3598 27.1 64.6798 26.98C63.9998 26.8467 63.4598 26.64 63.0598 26.36C62.6598 26.08 62.3598 25.7 62.1598 25.22C61.9598 24.7267 61.8265 24.12 61.7598 23.4C61.7065 22.6667 61.6798 21.8 61.6798 20.8V13.24H65.1598V21.54C65.1598 22.18 65.1732 22.7 65.1998 23.1C65.2398 23.4867 65.3198 23.78 65.4398 23.98C65.5732 24.18 65.7798 24.3133 66.0598 24.38C66.3532 24.4333 66.7465 24.46 67.2398 24.46C67.7332 24.46 68.1198 24.4333 68.3998 24.38C68.6798 24.3133 68.8798 24.18 68.9998 23.98C69.1332 23.78 69.2132 23.4867 69.2398 23.1C69.2798 22.7 69.2998 22.18 69.2998 21.54V13.24H72.7798V20.8C72.7798 21.8 72.7465 22.6667 72.6798 23.4C72.6265 24.12 72.4998 24.7267 72.2998 25.22C72.1132 25.7 71.8198 26.08 71.4198 26.36C71.0198 26.64 70.4798 26.8467 69.7998 26.98C69.1198 27.1 68.2665 27.16 67.2398 27.16ZM75.5684 27V13.24H79.0484V27H75.5684ZM84.6161 27V16.04H80.8561V13.24H91.8761V16.04H88.0961V27H84.6161ZM91.4959 27L95.8559 13.24H100.596L104.976 27H101.456L100.636 24.3H95.7359L94.9359 27H91.4959ZM96.4759 21.68H99.8759L98.2359 16.24H98.0959L96.4759 21.68ZM106.565 27V13.24H113.385C114.278 13.24 114.998 13.34 115.545 13.54C116.105 13.7267 116.525 14.0133 116.805 14.4C117.098 14.7733 117.291 15.24 117.385 15.8C117.491 16.3467 117.545 16.9733 117.545 17.68C117.545 18.2 117.505 18.7267 117.425 19.26C117.345 19.78 117.171 20.26 116.905 20.7C116.651 21.1267 116.258 21.4533 115.725 21.68L117.805 27H114.185L112.245 21.5L113.125 21.98C113.005 22.0467 112.878 22.0867 112.745 22.1C112.625 22.1133 112.471 22.12 112.285 22.12H110.045V27H106.565ZM110.045 19.54H112.045C112.498 19.54 112.858 19.52 113.125 19.48C113.405 19.4267 113.611 19.3333 113.745 19.2C113.878 19.0667 113.965 18.88 114.005 18.64C114.045 18.4 114.065 18.0933 114.065 17.72C114.065 17.3333 114.045 17.02 114.005 16.78C113.978 16.54 113.898 16.36 113.765 16.24C113.645 16.1067 113.445 16.0133 113.165 15.96C112.898 15.9067 112.525 15.88 112.045 15.88H110.045V19.54ZM120.002 27V13.24H123.482V27H120.002ZM131.83 27.16C130.803 27.16 129.95 27.1 129.27 26.98C128.59 26.8467 128.05 26.64 127.65 26.36C127.25 26.08 126.95 25.7 126.75 25.22C126.55 24.7267 126.416 24.12 126.35 23.4C126.296 22.6667 126.27 21.8 126.27 20.8V13.24H129.75V21.54C129.75 22.18 129.763 22.7 129.79 23.1C129.83 23.4867 129.91 23.78 130.03 23.98C130.163 24.18 130.37 24.3133 130.65 24.38C130.943 24.4333 131.336 24.46 131.83 24.46C132.323 24.46 132.71 24.4333 132.99 24.38C133.27 24.3133 133.47 24.18 133.59 23.98C133.723 23.78 133.803 23.4867 133.83 23.1C133.87 22.7 133.89 22.18 133.89 21.54V13.24H137.37V20.8C137.37 21.8 137.336 22.6667 137.27 23.4C137.216 24.12 137.09 24.7267 136.89 25.22C136.703 25.7 136.41 26.08 136.01 26.36C135.61 26.64 135.07 26.8467 134.39 26.98C133.71 27.1 132.856 27.16 131.83 27.16ZM140.158 27V13.24H144.938L147.678 21.4H147.818L150.558 13.24H155.318V27H151.978V18.06H151.838L148.858 27H146.518L143.558 18.06H143.398V27H140.158Z" fill="#E5E5E5"/>
</svg>
