<svg width="170" height="41" viewBox="0 0 170 41" fill="none" xmlns="http://www.w3.org/2000/svg">
<path fill-rule="evenodd" clip-rule="evenodd" d="M20.6841 40.138C31.7298 40.138 40.6841 31.1837 40.6841 20.138C40.6841 9.09237 31.7298 0.138062 20.6841 0.138062C9.63837 0.138062 0.684082 9.09237 0.684082 20.138C0.684082 31.1837 9.63837 40.138 20.6841 40.138ZM26.9234 9.4549C27.2271 8.37611 26.1802 7.73819 25.2241 8.41936L11.8772 17.9276C10.8403 18.6663 11.0034 20.138 12.1222 20.138H15.6368V20.1108H22.4866L16.9053 22.0801L14.4448 30.8212C14.1411 31.9 15.1879 32.5379 16.1441 31.8567L29.491 22.3485C30.5279 21.6098 30.3647 20.138 29.246 20.138H23.9162L26.9234 9.4549Z" fill="#E5E5E5"/>
<path d="M55.24 27.16C54.2133 27.16 53.3467 27.0933 52.64 26.96C51.9333 26.8267 51.3467 26.6067 50.88 26.3C50.4133 25.98 50.0467 25.5533 49.78 25.02C49.5267 24.4733 49.3467 23.8 49.24 23C49.1467 22.2 49.1 21.24 49.1 20.12C49.1 19 49.1467 18.04 49.24 17.24C49.3467 16.44 49.5333 15.7733 49.8 15.24C50.0667 14.6933 50.4333 14.2667 50.9 13.96C51.3667 13.64 51.9533 13.4133 52.66 13.28C53.3667 13.1467 54.2267 13.08 55.24 13.08C55.6933 13.08 56.2 13.1 56.76 13.14C57.32 13.18 57.8733 13.2333 58.42 13.3C58.98 13.3667 59.5 13.4467 59.98 13.54V16.04C59.5267 15.9733 59.0733 15.9267 58.62 15.9C58.18 15.86 57.7733 15.8267 57.4 15.8C57.0267 15.7733 56.72 15.76 56.48 15.76C55.76 15.76 55.1667 15.7733 54.7 15.8C54.2333 15.8267 53.8533 15.9133 53.56 16.06C53.2667 16.1933 53.0467 16.4133 52.9 16.72C52.7533 17.0267 52.6533 17.46 52.6 18.02C52.56 18.5667 52.54 19.2667 52.54 20.12C52.54 20.88 52.5533 21.52 52.58 22.04C52.62 22.56 52.6933 22.9867 52.8 23.32C52.92 23.6533 53.08 23.9133 53.28 24.1C53.4933 24.2733 53.7667 24.3933 54.1 24.46C54.4467 24.5267 54.8667 24.56 55.36 24.56C55.52 24.56 55.6933 24.56 55.88 24.56C56.0667 24.5467 56.2467 24.5333 56.42 24.52C56.5933 24.5067 56.74 24.5 56.86 24.5V21.52H54.9V19.02H60.04V26.72C59.56 26.8133 59.0333 26.8933 58.46 26.96C57.8867 27.0133 57.32 27.06 56.76 27.1C56.2 27.14 55.6933 27.16 55.24 27.16ZM62.7598 27V13.24H66.2398V27H62.7598ZM71.8075 27V16.04H68.0475V13.24H79.0675V16.04H75.2875V27H71.8075ZM78.6873 27L83.0473 13.24H87.7873L92.1673 27H88.6473L87.8273 24.3H82.9273L82.1273 27H78.6873ZM83.6673 21.68H87.0673L85.4273 16.24H85.2873L83.6673 21.68ZM93.7559 27V13.24H100.576C101.469 13.24 102.189 13.34 102.736 13.54C103.296 13.7267 103.716 14.0133 103.996 14.4C104.289 14.7733 104.483 15.24 104.576 15.8C104.683 16.3467 104.736 16.9733 104.736 17.68C104.736 18.2 104.696 18.7267 104.616 19.26C104.536 19.78 104.363 20.26 104.096 20.7C103.843 21.1267 103.449 21.4533 102.916 21.68L104.996 27H101.376L99.4359 21.5L100.316 21.98C100.196 22.0467 100.069 22.0867 99.9359 22.1C99.8159 22.1133 99.6626 22.12 99.4759 22.12H97.2359V27H93.7559ZM97.2359 19.54H99.2359C99.6893 19.54 100.049 19.52 100.316 19.48C100.596 19.4267 100.803 19.3333 100.936 19.2C101.069 19.0667 101.156 18.88 101.196 18.64C101.236 18.4 101.256 18.0933 101.256 17.72C101.256 17.3333 101.236 17.02 101.196 16.78C101.169 16.54 101.089 16.36 100.956 16.24C100.836 16.1067 100.636 16.0133 100.356 15.96C100.089 15.9067 99.7159 15.88 99.2359 15.88H97.2359V19.54ZM107.193 27V13.24H110.673V27H107.193ZM119.021 27.16C117.994 27.16 117.141 27.1 116.461 26.98C115.781 26.8467 115.241 26.64 114.841 26.36C114.441 26.08 114.141 25.7 113.941 25.22C113.741 24.7267 113.608 24.12 113.541 23.4C113.488 22.6667 113.461 21.8 113.461 20.8V13.24H116.941V21.54C116.941 22.18 116.954 22.7 116.981 23.1C117.021 23.4867 117.101 23.78 117.221 23.98C117.354 24.18 117.561 24.3133 117.841 24.38C118.134 24.4333 118.528 24.46 119.021 24.46C119.514 24.46 119.901 24.4333 120.181 24.38C120.461 24.3133 120.661 24.18 120.781 23.98C120.914 23.78 120.994 23.4867 121.021 23.1C121.061 22.7 121.081 22.18 121.081 21.54V13.24H124.561V20.8C124.561 21.8 124.528 22.6667 124.461 23.4C124.408 24.12 124.281 24.7267 124.081 25.22C123.894 25.7 123.601 26.08 123.201 26.36C122.801 26.64 122.261 26.8467 121.581 26.98C120.901 27.1 120.048 27.16 119.021 27.16ZM127.35 27V13.24H132.13L134.87 21.4H135.01L137.75 13.24H142.51V27H139.17V18.06H139.03L136.05 27H133.71L130.75 18.06H130.59V27H127.35Z" fill="#E5E5E5"/>
</svg>
