<svg width="24" height="24" viewBox="0 0 24 24" fill="none" xmlns="http://www.w3.org/2000/svg">
<path fill-rule="evenodd" clip-rule="evenodd" d="M3 10.5C3 8.51088 3.79018 6.60322 5.1967 5.1967C6.60322 3.79018 8.51088 3 10.5 3C12.4891 3 14.3968 3.79018 15.8033 5.1967C17.2098 6.60322 18 8.51088 18 10.5C18 12.4891 17.2098 14.3968 15.8033 15.8033C14.3968 17.2098 12.4891 18 10.5 18C8.51088 18 6.60322 17.2098 5.1967 15.8033C3.79018 14.3968 3 12.4891 3 10.5ZM10.5 0C8.83626 0 7.19633 0.395359 5.71536 1.1535C4.23438 1.91163 2.95477 3.01084 1.98196 4.36054C1.00915 5.71024 0.370997 7.27179 0.12009 8.91651C-0.130817 10.5612 0.0127046 12.242 0.538827 13.8204C1.06495 15.3988 1.95861 16.8295 3.14617 17.9947C4.33372 19.16 5.78118 20.0263 7.36924 20.5224C8.95731 21.0185 10.6405 21.1301 12.2802 20.848C13.9198 20.5659 15.469 19.8982 16.8 18.9C16.8426 18.9567 16.8893 19.0104 16.9395 19.0605L21.4395 23.5605C21.7224 23.8337 22.1013 23.9849 22.4946 23.9815C22.8879 23.9781 23.2641 23.8203 23.5422 23.5422C23.8203 23.2641 23.9781 22.8879 23.9815 22.4946C23.9849 22.1013 23.8337 21.7224 23.5605 21.4395L19.0605 16.9395C19.0104 16.8893 18.9567 16.8426 18.9 16.8C20.07 15.24 20.7825 13.3851 20.9576 11.443C21.1327 9.50086 20.7635 7.54837 19.8915 5.80426C19.0194 4.06015 17.6789 2.59333 16.0202 1.56817C14.3614 0.543004 12.45 0 10.5 0Z" fill="#0D2525"/>
</svg>
