<svg width="30" height="31" viewBox="0 0 30 31" fill="none" xmlns="http://www.w3.org/2000/svg">
<g clip-path="url(#clip0_2_196)">
<path d="M26.8761 9.06C26.888 9.32373 26.8939 9.58869 26.8939 9.85482C26.8939 17.9725 20.7146 27.3325 9.41695 27.3325C5.94768 27.3325 2.7184 26.3154 0 24.5725C0.481172 24.6295 0.969492 24.6586 1.46555 24.6586C4.34373 24.6586 6.99199 23.6766 9.09498 22.0287C6.40629 21.9794 4.13818 20.2032 3.35643 17.7628C3.73189 17.8347 4.11627 17.8733 4.51248 17.8733C5.07205 17.8733 5.61498 17.7979 6.13066 17.6577C3.3208 17.0933 1.20293 14.6108 1.20293 11.6346C1.20293 11.6084 1.20293 11.5829 1.20357 11.5573C2.03168 12.0171 2.97861 12.2934 3.98607 12.3254C2.3376 11.2241 1.25344 9.34389 1.25344 7.21242C1.25344 6.08672 1.55578 5.03168 2.08506 4.12453C5.11477 7.8409 9.6402 10.286 14.7455 10.5427C14.641 10.0929 14.5863 9.62426 14.5863 9.1425C14.5863 5.75045 17.3367 3 20.7288 3C22.4967 3 24.0923 3.74613 25.2127 4.93957C26.6123 4.66453 27.9263 4.15307 29.1132 3.44906C28.6546 4.88373 27.6815 6.08725 26.4127 6.84762C27.6554 6.69908 28.84 6.36885 29.9413 5.88053C29.118 7.11205 28.0761 8.19381 26.8761 9.06Z" fill="#E5E5E5"/>
</g>
<defs>
<clipPath id="clip0_2_196">
<rect width="29.9413" height="30.3325" fill="white"/>
</clipPath>
</defs>
</svg>
