<svg width="30" height="30" viewBox="0 0 30 30" fill="none" xmlns="http://www.w3.org/2000/svg">
<g clip-path="url(#clip0_2_199)">
<path d="M28.8019 23.0428C28.2534 24.2756 26.8387 25.3922 25.5103 25.6388C25.3744 25.6641 22.1278 26.25 15.0094 26.25H14.9906C7.8731 26.25 4.62373 25.6641 4.48873 25.6397C3.16029 25.3922 1.74467 24.2756 1.19529 23.0419C1.14654 22.9322 0.000915527 20.2941 0.000915527 15C0.000915527 9.70594 1.14654 7.06687 1.19529 6.95719C1.74467 5.72344 3.16029 4.60781 4.48873 4.36125C4.62373 4.33594 7.8731 3.75 14.9906 3.75C22.1278 3.75 25.3744 4.33594 25.5094 4.36031C26.8387 4.60781 28.2534 5.72344 28.8028 6.95625C28.8515 7.06687 30 9.70594 30 15C30 20.2941 28.8515 22.9322 28.8019 23.0428ZM27.0872 7.71563C26.7947 7.05844 25.8778 6.33656 25.1672 6.20438C25.1372 6.19875 21.9244 5.625 15.0094 5.625C8.07654 5.625 4.86092 6.19875 4.82998 6.20438C4.11935 6.33656 3.20342 7.05844 2.90998 7.71938C2.9006 7.73906 1.87685 10.1522 1.87685 15C1.87685 19.8469 2.9006 22.26 2.91185 22.2844C3.20342 22.9416 4.11935 23.6634 4.83092 23.7956C4.86092 23.8013 8.07654 24.375 14.9906 24.375H15.0094C21.9244 24.375 25.1372 23.8013 25.1681 23.7956C25.8787 23.6634 26.7947 22.9416 27.0881 22.2806C27.0975 22.26 28.1231 19.8469 28.1231 15C28.1231 10.1531 27.0975 7.73906 27.0872 7.71563ZM12.6947 20.4806C12.5428 20.5772 12.3684 20.625 12.195 20.625C12.0394 20.625 11.8837 20.5866 11.7422 20.5078C11.4431 20.3428 11.2575 20.0287 11.2575 19.6875V10.3125C11.2575 9.97219 11.4412 9.65906 11.7384 9.49406C12.0356 9.32812 12.4003 9.33563 12.6881 9.51469L20.2059 14.1609C20.4806 14.3306 20.6494 14.6306 20.6503 14.9541C20.6512 15.2775 20.4862 15.5794 20.2125 15.7509L12.6947 20.4806ZM13.1334 11.9944V17.9897L17.9409 14.9653L13.1334 11.9944Z" fill="#E5E5E5"/>
</g>
<defs>
<clipPath id="clip0_2_199">
<rect width="30" height="30" fill="white"/>
</clipPath>
</defs>
</svg>
